<?xml version="1.0" standalone="no"?>
<!DOCTYPE svg PUBLIC "-//W3C//DTD SVG 1.0//EN" 
 "http://www.w3.org/TR/2001/REC-SVG-20010904/DTD/svg10.dtd">
<svg xmlns="http://www.w3.org/2000/svg" xmlns:xlink="http://www.w3.org/1999/xlink" width="500" height="500">
	
  	<defs>
		<style type="text/css"><![CDATA[
		
		/* Symbol private styles. Always start with "sym" to avoid name collisions! */
		
		.symBuildShadow 	{fill:none;stroke:black;opacity:0.5;stroke-width:7;}
		.symBuild 			{stroke:yellow;stroke-width:7;fill:none;}
		.symRemove			{stroke:red;stroke-width:1;fill:none;}
		
		.symSolid				{stroke:black;stroke-width:1;fill:black;}
		.symSolidRed			{stroke:red;stroke-width:1;fill:red;}
		.symBorder				{stroke:black;stroke-width:3.5%;stroke-linejoin:round;}
		.symShadow				{stroke:black;fill:black;stroke-width:1;opacity:0.60;}
		.symDislodgedShadow		{stroke:red;fill:red;stroke-width:1;opacity:0.50;}
		.symDislodgedBorder		{stroke:red;stroke-width:3.5%;stroke-linejoin:round;}
		
		.symDarkener			{fill:black;opacity:0.45;fill-opacity:0.45;}
		.symCenterHub			{fill:black; stroke:black; opacity:0.60; stroke-width:0.5px;}
		.symBorderHeavy			{stroke:black;stroke-width:10%;stroke-linejoin:round;}
		.symThinBorder			{stroke:black;stroke-width:2%;}
		.symSilhouette			{stroke:black;fill:black;stroke-width:1;}
		.symNoBorder			{stroke:none;stroke-width:0;}
		.symWhiteFill			{stroke:white;stroke-width:1;fill:white;}
		
		]]></style>
		
		<!-- NON UNIT SYMBOLS -->
		<symbol id="WaivedBuild" viewBox="0 0 100 100" overflow="visible">
		   	<linearGradient x1="15" y1="100" x2="100" y2="10" id="symWBGradient" gradientUnits="userSpaceOnUse">
				<stop offset="20%" stop-color="yellow" stop-opacity="1"/>
				<stop offset="95%" stop-color="yellow" stop-opacity="0"/>
			</linearGradient>
		   	<linearGradient x1="15" y1="100" x2="100" y2="10" id="symShadowWBGradient" gradientUnits="userSpaceOnUse">
				<stop offset="20%" stop-color="black" stop-opacity="0.5"/>
				<stop offset="90%" stop-color="black" stop-opacity="0"/>
			</linearGradient>
			<g transform="translate(-35,-60)">
				<polygon transform="translate(1,7)" fill="url(#symShadowWBGradient)" points="40,100 100,35 95,30 40,85 13,65 10,70"/>
				<polygon stroke="black" stroke-width="0.5" fill="url(#symWBGradient)" points="40,100 100,35 90,20 40,85 13,65 10,70"/>
			</g>
		</symbol>
		
		<symbol id="BuildUnit" viewBox="0 0 100 100" overflow="visible">
			<g transform="translate(-50,-50)">
				<g transform="translate(6,6)" class="symBuildShadow">
					<circle cx="50" cy="50" r="10"/>
					<circle cx="50" cy="50" r="30"/>
					<circle cx="50" cy="50" r="50"/>
					<circle cx="50" cy="50" r="70"/>
				</g>
				<g class="symBuild">
					<circle cx="50" cy="50" r="10"/>
					<circle cx="50" cy="50" r="30"/>
					<circle cx="50" cy="50" r="50"/>
					<circle cx="50" cy="50" r="70"/>
				</g>
			</g>
		</symbol>
		
		<symbol id="RemoveUnit" viewBox="0 0 10 10" overflow="visible">
			<g transform="translate(-5,-5)" class="symRemove">
				<circle cx="5" cy="5" r="7"/>
				<line x1="-2" y1="-2" x2="12" y2="12"/>
				<line x1="-2" y1="12" x2="12" y2="-2"/>
			</g>
		</symbol>
		
		<symbol id="FailedOrder" viewBox="0 0 35 35" overflow="visible">
			<g transform="translate(-17.5,-17.5)">
				<polygon transform="translate(3.5,3.5)" class="shadow" stroke-width="1" points="0,0 12,0 17,6 22,0 35,0 22,17 32,34 19,34 15,27 9,34 -4,34 10,17"/>
				<polygon stroke="black" fill="red" stroke-width="3%" fill-opacity="1" points="0,0 12,0 17,6 22,0 35,0 22,17 32,34 19,34 15,27 9,34 -4,34 10,17"/>
			</g>
		</symbol>
		
		<symbol id="SupplyCenter" viewBox="0 0 10 10" overflow="visible">
			<g transform="translate(0,0)">
				<circle cx="0" cy="0" r="3.8" class="symBorderHeavy" fill="none"/>
				<circle cx="0" cy="0" r="2.5" style="stroke-width:0px"/>
			</g>
		</symbol>
		
		<!-- UNIT SYMBOLS -->
		<symbol id="Army" viewBox="0 0 13 12" overflow="visible">
			<g transform="translate(-6.5,-6)">
				<path class="symNoBorder" d="M 0,-0.4 L 9,-0.4 9,11.4 0,11.4 z"/> 
				<path class="symThinBorder" fill="none" d="M 7.5,11.4 L 0,11.4 0,-0.4 8.5,-0.4" />
				<path class="symWhiteFill" d="M 9,0 L 10,0 10,11 8,11 8,10 9,9 9,7 8,6 8,2 9,1 z"/>
				<path class="symSolid" d="M 10,0 L 12,0 12,2 13,2 13,6 12,7 12,10 13,10 13,11 9,11 9,10 10,10 10,7 9,6 9,2 10,2 z"/>
			</g>
 		</symbol>
		
		<symbol id="Fleet" viewBox="0 0 14 12" overflow="visible">
			<g transform="translate(-6,-6.5)">
				<polygon class="symNoBorder" points="-0.5,0 13.5,0 13.5,8 10,7.5 -0.5,9"/>
				<path class="symThinBorder" fill="none" d="M -0.5,8.5 L -0.5,0 13.5,0 13.5,7.5" />
				<path class="symWhiteFill" d="M 0,9 L 2,9 5,6 7,6 7,5 8,5 11,8 13,8 13,9 3,10 0,10 z"/>
				<path class="symSolid" d="M 0 10 L 3,10 3,9 4,9 4,8 5,8 5,7 6,7 6,8 7,8 7,6 8,6 8,7 9,7 9,8 10,8 10,9 13,9 12,11 0,11 z"/>
			</g>
		</symbol>
		
		<symbol id="Wing" viewBox="0 0 14 12" overflow="visible">
			<g transform="translate(-6.5,-6.5)">
				<polygon class="symNoBorder" points="-1,0 14,0 14,9.5 4,9.5 -1,7"/>
				<path class="symThinBorder" fill="none" d="M -1,7 L -1,0 14,0 14,9.5" />
				<g class="symWhiteFill" transform="translate(0,-1.25)">
					<path d="M 3,11 L 0,8.5 2,8.5 5,10 12,10 14,11 z"/>
					<path d="M 1.5,10 L 1.5,11 2,11 z"/>
					<path d="M 5,11 L 5.5,12 10,11 z"/>
				</g>
				<g class="symSolid">
					<path d="M 3,11 L 0,8.5 2,8.5 5,10 12,10 14,11 z"/>
					<path d="M 1.5,10 L 1.5,11 2,11 z"/>
					<path d="M 5,11 L 5.5,12 10,11 z"/>
					<path d="M 9,10 L 10,9.5 10.5,9.5 11.5,10 z"/>
				</g>
			</g>
		</symbol>
		
		<!-- DISLODGED UNIT SYMBOLS -->
		<symbol id="DislodgedArmy" viewBox="0 0 13 12" overflow="visible">
			<g transform="translate(-6.5,-6)">
				<path class="symNoBorder" d="M 0,-0.4 L 9,-0.4 9,11.4 0,11.4 z"/> 
				<path class="symThinBorder" fill="none" d="M 7.5,11.4 L 0,11.4 0,-0.4 8.5,-0.4" />
				<path class="symWhiteFill" d="M 9,0 L 10,0 10,11 8,11 8,10 9,9 9,7 8,6 8,2 9,1 z"/>
				<path class="symSolidRed" d="M 10,0 L 12,0 12,2 13,2 13,6 12,7 12,10 13,10 13,11 9,11 9,10 10,10 10,7 9,6 9,2 10,2 z"/>
			</g>
 		</symbol>
		
		<symbol id="DislodgedFleet" viewBox="0 0 14 12" overflow="visible">
			<g transform="translate(-6,-6.5)">
				<polygon class="symNoBorder" points="-0.5,0 13.5,0 13.5,8 10,7.5 -0.5,9"/>
				<path class="symThinBorder" fill="none" d="M -0.5,8.5 L -0.5,0 13.5,0 13.5,7.5" />
				<path class="symWhiteFill" d="M 0,9 L 2,9 5,6 7,6 7,5 8,5 11,8 13,8 13,9 3,10 0,10 z"/>
				<path class="symSolidRed" d="M 0 10 L 3,10 3,9 4,9 4,8 5,8 5,7 6,7 6,8 7,8 7,6 8,6 8,7 9,7 9,8 10,8 10,9 13,9 12,11 0,11 z"/>
			</g>
		</symbol>
		
		<symbol id="DislodgedWing" viewBox="0 0 14 12" overflow="visible">
			<g transform="translate(-6.5,-6.5)">
				<polygon class="symNoBorder" points="-1,0 14,0 14,9.5 4,9.5 -1,7"/>
				<path class="symThinBorder" fill="none" d="M -1,7 L -1,0 14,0 14,9.5" />
				<g class="symWhiteFill" transform="translate(0,-1.25)">
					<path d="M 3,11 L 0,8.5 2,8.5 5,10 12,10 14,11 z"/>
					<path d="M 1.5,10 L 1.5,11 2,11 z"/>
					<path d="M 5,11 L 5.5,12 10,11 z"/>
				</g>
				<g class="symSolidRed">
					<path d="M 3,11 L 0,8.5 2,8.5 5,10 12,10 14,11 z"/>
					<path d="M 1.5,10 L 1.5,11 2,11 z"/>
					<path d="M 5,11 L 5.5,12 10,11 z"/>
					<path d="M 9,10 L 10,9.5 10.5,9.5 11.5,10 z"/>
				</g>
			</g>
		</symbol>
	</defs>
	
	
	<!-- Example code: displays the symbols (3 main types) + SC -->
	<!-- Suitable for creating thumbnail images -->
	<g>                                                
		<!-- display="none" to hide; display="inline" to show -->
		<g stroke="black" stroke-width="1" fill="none" display="none">
			<g transform="translate(-25,-25)">
				<!-- regular units -->
				<rect x="50" y="100" width="50" height="50"/>
				<line x1="40" y1="125" x2="110" y2="125"/>
				<line x1="75" y1="90" x2="75" y2="160"/>
				
				<rect x="125" y="100" width="50" height="50"/>
				<line x1="115" y1="125" x2="185" y2="125"/>
				<line x1="150" y1="90" x2="150" y2="160"/>
				
				<rect x="200" y="100" width="50" height="50"/>
				<line x1="190" y1="125" x2="260" y2="125"/>
				<line x1="225" y1="90" x2="225" y2="160"/>
				<!-- dislodged units -->
				<rect x="50"  y="225" width="50" height="50"/>
				<rect x="125" y="225" width="50" height="50"/>
				<rect x="200" y="225" width="50" height="50"/>
				<!-- symbols -->
				<rect x="350" y="350" width="50" height="50"/>
			</g>
			<g transform="translate(-15,-15)">
				<!-- supply center -->
				<rect x="275" y="100" width="30" height="30"/>
				<line x1="265" y1="115" x2="315" y2="115"/>
				<line x1="290" y1="90" x2="290" y2="140"/>
				<!-- symbols -->
				<rect x="50"  y="350" width="30" height="30"/>
				<rect x="150" y="350" width="30" height="30"/>
				<rect x="250" y="350" width="30" height="30"/>
			</g>
		</g>
		
		<use fill="blue" xlink:href="#Army" 	x="50" y="100" 	width="20" height="20"/>
		<use fill="forestgreen" 		xlink:href="#Fleet"	x="125" y="100" width="20" height="20"/>
		<use fill="blue" 	xlink:href="#Wing" 	x="200" y="100" width="20" height="20"/>
		<use fill="forestgreen" stroke="black" xlink:href="#SupplyCenter" 	x="275" y="100" width="15" height="15"/>
		
		<!-- show other symbols too -->
		<use fill="blue" xlink:href="#DislodgedArmy"  x="50"  y="225" width="50" height="50"/>
		<use fill="forestgreen" 		xlink:href="#DislodgedFleet" x="125" y="225" width="50" height="50"/>
		<use fill="blue" 	xlink:href="#DislodgedWing"  x="200" y="225" width="50" height="50"/>
		
		<use xlink:href="#BuildUnit" 	x="50"  y="350" width="30" height="30"/>
		<use xlink:href="#RemoveUnit" 	x="150" y="350" width="30" height="30"/>
		<use xlink:href="#FailedOrder"	x="250" y="350" width="30" height="30"/>
		<use xlink:href="#WaivedBuild"	x="350" y="350" width="50" height="50"/>
	</g>
	<!-- end example code -->
	
	
</svg>
