<?xml version="1.0" standalone="no"?>
<!DOCTYPE svg PUBLIC "-//W3C//DTD SVG 1.0//EN" 
 "http://www.w3.org/TR/2001/REC-SVG-20010904/DTD/svg10.dtd">
<svg xmlns="http://www.w3.org/2000/svg" xmlns:xlink="http://www.w3.org/1999/xlink" width="500" height="500">
	
  	<defs>
		<style type="text/css"><![CDATA[
		
		/* Symbol private styles. Always start with "sym" to avoid name collisions! */
		
		.symBuildShadow {fill:none;stroke:black;opacity:0.5;stroke-width:7;}
		.symBuild 		{stroke:yellow;stroke-width:7;fill:none;}
		.symRemove		{stroke:red;stroke-width:1;fill:none;}
		
		.symShadow				{stroke:black;fill:black;stroke-width:1;opacity:0.40;}
		.symDislodgedShadow		{stroke:red;fill:red;stroke-width:1;opacity:0.50;}
		.symBorder				{stroke:black;}
		.symDislodgedBorder		{stroke:red;}
		.symThinBorder			{stroke:black;stroke-width:0.2;}

		
		]]></style>
		
		<!-- NON UNIT SYMBOLS -->
		<symbol id="WaivedBuild" viewBox="0 0 100 100" overflow="visible">
		   	<linearGradient x1="15" y1="100" x2="100" y2="10" id="symWBGradient" gradientUnits="userSpaceOnUse">
				<stop offset="20%" stop-color="yellow" stop-opacity="1"/>
				<stop offset="95%" stop-color="yellow" stop-opacity="0"/>
			</linearGradient>
		   	<linearGradient x1="15" y1="100" x2="100" y2="10" id="symShadowWBGradient" gradientUnits="userSpaceOnUse">
				<stop offset="20%" stop-color="black" stop-opacity="0.5"/>
				<stop offset="90%" stop-color="black" stop-opacity="0"/>
			</linearGradient>
			<g transform="translate(-35,-60)">
				<polygon transform="translate(1,7)" fill="url(#symShadowWBGradient)" points="40,100 100,35 95,30 40,85 13,65 10,70"/>
				<polygon stroke="black" stroke-width="0.5" fill="url(#symWBGradient)" points="40,100 100,35 90,20 40,85 13,65 10,70"/>
			</g>
		</symbol>
		
		<symbol id="BuildUnit" viewBox="0 0 100 100" overflow="visible">
			<g transform="translate(-50,-50)">
				<g transform="translate(6,6)" class="symBuildShadow">
					<circle cx="50" cy="50" r="10"/>
					<circle cx="50" cy="50" r="30"/>
					<circle cx="50" cy="50" r="50"/>
					<circle cx="50" cy="50" r="70"/>
				</g>
				<g class="symBuild">
					<circle cx="50" cy="50" r="10"/>
					<circle cx="50" cy="50" r="30"/>
					<circle cx="50" cy="50" r="50"/>
					<circle cx="50" cy="50" r="70"/>
				</g>
			</g>
		</symbol>
		
		<symbol id="RemoveUnit" viewBox="0 0 10 10" overflow="visible">
			<g transform="translate(-5,-5)" class="symRemove">
				<circle cx="5" cy="5" r="7"/>
				<line x1="-2" y1="-2" x2="12" y2="12"/>
				<line x1="-2" y1="12" x2="12" y2="-2"/>
			</g>
		</symbol>
		
		<symbol id="FailedOrder" viewBox="0 0 35 35" overflow="visible">
			<g transform="translate(-17.5,-17.5)">
				<polygon transform="translate(3.5,3.5)" class="symShadow" stroke-width="1" points="0,0 12,0 17,6 22,0 35,0 22,17 32,34 19,34 15,27 9,34 -4,34 10,17"/>
				<polygon stroke="black" fill="red" stroke-width="3%" fill-opacity="1" points="0,0 12,0 17,6 22,0 35,0 22,17 32,34 19,34 15,27 9,34 -4,34 10,17"/>
			</g>
		</symbol>
		
		<symbol id="SupplyCenter" viewBox="0 0 10 10" overflow="visible">
			<g transform="translate(-5,-5)">
				<circle cx="5" cy="5" r="3" class="symThinBorder"/>
				<circle cx="5" cy="5" r="5" stroke-width="0.75" stroke="black" fill="none"/>
			</g>
		</symbol>
		
		<!-- UNITS -->
		<symbol id="Wing" viewBox="0 0 10 10" overflow="visible">
			<g transform="translate(-5,-5)">
				<path transform="translate(1,1)" class="symShadow" stroke-width="1" d="M 5,0 L 10,10 L 0,10 z"/>
				<path stroke-width="3%" class="symBorder" d="M 5,0 L 10,10 L 0,10 z"/>
				<text stroke-width="0.1" font-family="sansserif" font-size="4" font-weight="lighter" text-anchor="middle" stroke="black" fill="black" x="5" y="9">W</text>
			</g>
		</symbol>
		
		
		<symbol id="Army" viewBox="0 0 10 10" overflow="visible">
			<g transform="translate(-5,-5)">
				<circle cx="60%" cy="60%" r="50%" stroke-width="3%" class="symShadow"/>
				<circle cx="50%" cy="50%" r="50%" stroke-width="3%" class="symBorder"/>
				<text stroke-width="0.1" font-family="sansserif" font-size="8" font-weight="lighter" text-anchor="middle" baseline-shift="-3" stroke="black" fill="black" x="50%" y="50%">A</text>
			</g>
		</symbol>
		
		<symbol id="Fleet" viewBox="0 0 10 10" overflow="visible">
			<g transform="translate(-5,-5)">
				<rect x="10%" y="10%" width="100%" height="100%" stroke-width="1" class="symShadow"/>
				<rect x="0%" y="0%" width="100%" height="100%" stroke-width="3%" class="symBorder"/>
				<text stroke-width="0.1" font-family="sansserif" font-size="8" font-weight="lighter" text-anchor="middle" baseline-shift="-3" stroke="black" fill="black" x="50%" y="50%">F</text>
			</g>
		</symbol>
		
		<!-- DISLODGED UNITS -->
		<symbol id="DislodgedWing" viewBox="0 0 10 10" overflow="visible">
			<g transform="translate(-5,-5)">
				<path transform="translate(2,2)" class="symDislodgedShadow" stroke-width="1" d="M 5,0 L 10,10 L 0,10 z"/>
				<path stroke-width="3%" class="symDislodgedBorder" d="M 5,0 L 10,10 L 0,10 z"/>
				<text stroke-width="0.1" font-family="sansserif" font-size="4" font-weight="lighter" text-anchor="middle" stroke="black" fill="black" x="5" y="9">W</text>
			</g>
		</symbol>
		
		<symbol id="DislodgedArmy" viewBox="0 0 10 10" overflow="visible">
			<g transform="translate(-5,-5)">
				<circle cx="70%" cy="70%" r="50%" stroke-width="3%" class="symDislodgedShadow"/>
				<circle cx="50%" cy="50%" r="50%" stroke-width="3%" class="symDislodgedBorder"/>
				<text stroke-width="0.1" font-family="sansserif" font-size="8" font-weight="lighter" text-anchor="middle" baseline-shift="-3" stroke="black" fill="black" x="50%" y="50%">A</text>
			</g>
		</symbol>
		
		<symbol id="DislodgedFleet" viewBox="0 0 10 10" overflow="visible">
			<g transform="translate(-5,-5)">
				<rect x="20%" y="20%" width="100%" height="100%" stroke-width="1" class="symDislodgedShadow"/>
				<rect x="0%" y="0%" width="100%" height="100%" stroke-width="3%" class="symDislodgedBorder"/>
				<text stroke-width="0.1" font-family="sansserif" font-size="8" font-weight="lighter" text-anchor="middle" baseline-shift="-3" stroke="black" fill="black" x="50%" y="50%">F</text>
			</g>
		</symbol>		
	</defs>
	
	<!-- Example code: displays the symbols (3 main types) + SC -->
	<!-- Suitable for creating thumbnail images -->
	<g>                                                                                                    
		<use fill="deepskyblue" xlink:href="#Army" 	x="50" y="100" 	width="50" height="50"/>
		<use fill="yellow" 		xlink:href="#Fleet"	x="125" y="100" width="50" height="50"/>
		<use fill="lightgray" 	xlink:href="#Wing" 	x="75" y="150" width="50" height="50"/>
		<use fill="black" stroke="black" xlink:href="#SupplyCenter" 	x="150" y="155" width="30" height="30"/>
		
		<!-- show other symbols too -->
		
		<use fill="deepskyblue" xlink:href="#DislodgedArmy" x="50"  y="250" width="50" height="50"/>
		<use fill="yellow" 		xlink:href="#DislodgedFleet" x="150" y="250" width="50" height="50"/>
		<use fill="lightgray" 	xlink:href="#DislodgedWing" x="250" y="250" width="50" height="50"/>
		
		<use xlink:href="#BuildUnit" 	x="50"  y="350" width="30" height="30"/>
		<use xlink:href="#RemoveUnit" 	x="150" y="350" width="30" height="30"/>
		<use xlink:href="#FailedOrder"	x="250" y="350" width="30" height="30"/>
		<use xlink:href="#WaivedBuild"	x="350" y="350" width="50" height="50"/>
	</g>
	<!-- end example code -->
	
</svg>
