<?xml version="1.0" standalone="no"?>
<!DOCTYPE svg PUBLIC "-//W3C//DTD SVG 1.0//EN" 
 "http://www.w3.org/TR/2001/REC-SVG-20010904/DTD/svg10.dtd">
<svg xmlns="http://www.w3.org/2000/svg" xmlns:xlink="http://www.w3.org/1999/xlink" width="500" height="500">
	
  	<defs>
		<style type="text/css"><![CDATA[
		
		/* Symbol private styles. Always start with "sym" to avoid name collisions! */
		
		.symBuildShadow {fill:none;stroke:black;opacity:0.5;stroke-width:7;}
		.symBuild 		{stroke:yellow;stroke-width:7;fill:none;}
		.symRemove		{stroke:red;stroke-width:1;fill:none;}
		
		.symShadow				{stroke:black;fill:black;stroke-width:1;opacity:0.40;}
		.symDislodgedShadow		{stroke:red;fill:red;stroke-width:1;opacity:0.50;}
		.symDislodgedBorder		{stroke:red;stroke-width:3%;}
		
		.symDarkener			{fill:black;opacity:0.45;fill-opacity:0.45;}
		.symCenterHub			{fill:black; stroke:black; opacity:0.60; stroke-width:0.5px;}
		.symBorder				{stroke:black;stroke-width:3%;}
		.symThinBorder			{stroke:black;stroke-width:0.4;}
		.symSilhouette			{stroke:black;fill:black;stroke-width:1;}
		
		]]></style>
		
		<!-- NON UNIT SYMBOLS -->
		<symbol id="WaivedBuild" viewBox="0 0 100 100" overflow="visible">
		   	<linearGradient x1="15" y1="100" x2="100" y2="10" id="symWBGradient" gradientUnits="userSpaceOnUse">
				<stop offset="20%" stop-color="yellow" stop-opacity="1"/>
				<stop offset="95%" stop-color="yellow" stop-opacity="0"/>
			</linearGradient>
		   	<linearGradient x1="15" y1="100" x2="100" y2="10" id="symShadowWBGradient" gradientUnits="userSpaceOnUse">
				<stop offset="20%" stop-color="black" stop-opacity="0.5"/>
				<stop offset="90%" stop-color="black" stop-opacity="0"/>
			</linearGradient>
			<g transform="translate(-35,-60)">
				<polygon transform="translate(1,7)" fill="url(#symShadowWBGradient)" points="40,100 100,35 95,30 40,85 13,65 10,70"/>
				<polygon stroke="black" stroke-width="0.5" fill="url(#symWBGradient)" points="40,100 100,35 90,20 40,85 13,65 10,70"/>
			</g>
		</symbol>
		
		<symbol id="BuildUnit" viewBox="0 0 100 100" overflow="visible">
			<g transform="translate(-50,-50)">
				<g transform="translate(6,6)" class="symBuildShadow">
					<circle cx="50" cy="50" r="10"/>
					<circle cx="50" cy="50" r="30"/>
					<circle cx="50" cy="50" r="50"/>
					<circle cx="50" cy="50" r="70"/>
				</g>
				<g class="symBuild">
					<circle cx="50" cy="50" r="10"/>
					<circle cx="50" cy="50" r="30"/>
					<circle cx="50" cy="50" r="50"/>
					<circle cx="50" cy="50" r="70"/>
				</g>
			</g>
		</symbol>
		
		<symbol id="RemoveUnit" viewBox="0 0 10 10" overflow="visible">
			<g transform="translate(-5,-5)" class="symRemove">
				<circle cx="5" cy="5" r="7"/>
				<line x1="-2" y1="-2" x2="12" y2="12"/>
				<line x1="-2" y1="12" x2="12" y2="-2"/>
			</g>
		</symbol>
		
		<symbol id="FailedOrder" viewBox="0 0 35 35" overflow="visible">
			<g transform="translate(-17.5,-17.5)">
				<polygon transform="translate(3.5,3.5)" class="shadow" stroke-width="1" points="0,0 12,0 17,6 22,0 35,0 22,17 32,34 19,34 15,27 9,34 -4,34 10,17"/>
				<polygon stroke="black" fill="red" stroke-width="3%" fill-opacity="1" points="0,0 12,0 17,6 22,0 35,0 22,17 32,34 19,34 15,27 9,34 -4,34 10,17"/>
			</g>
		</symbol>
		
		<symbol id="SupplyCenter" viewBox="0 0 10 10" overflow="visible">
			<g transform="translate(-5,-5)">
				<circle cx="5" cy="5" r="3" class="symThinBorder"/>
				<circle cx="5" cy="5" r="5" stroke-width="0.75" stroke="black" fill="none"/>
			</g>
		</symbol>
		
		<!-- UNIT SYMBOLS -->
		<symbol id="Army" viewBox="0 0 23 15" overflow="visible">
			<g transform="translate(-11.5,-10)">
				<rect x="2" y="2" width="23" height="13" rx="4" stroke-width="1" class="symShadow" />
				<rect x="0" y="0" width="23" height="13" rx="4" class="symBorder" />
				<g class="symSilhouette">
					<rect x="6" y="6" width="13" height="1"/>
					<rect x="5" y="7" width="14" height="1"/>
					<rect x="6" y="8" width="12" height="1"/>
					<rect x="7" y="9" width="10" height="1"/>
					<rect x="10" y="3" width="5" height="3"/>
					<rect x="15" y="4.5" width="1" height="1.5"/>
					<line x1="3" y1="4" x2="10" y2="4"/>
				</g>
			</g>	
		</symbol>
		
		<symbol id="Fleet" viewBox="0 0 23 15" overflow="visible">
			<g transform="translate(-11.5,-10)">
				<rect x="2" y="2" width="23" height="13" rx="4" stroke-width="1" class="symShadow" />
				<rect x="0" y="0" width="23" height="13" rx="4" class="symBorder" />
				<g class="symSilhouette">
					<rect x="3" y="7" width="16.5" height="1"/>
					<rect x="4" y="8" width="15" height="1"/>
					<rect x="5" y="9" width="13.5" height="1"/>
					<rect x="13.5" y="6" width="2.75" height="1"/>
					<rect x="7" y="5"  width="4" height="2"/>
					<rect x="8.5" y="4"  width="1" height="1"/>
					<rect x="6" y="6" width="1" height="1"/>
				</g>
			</g>	
		</symbol>
		
		<symbol id="Wing" viewBox="0 0 250 150" overflow="visible">
			<g transform="translate(-125,-150)">
				<rect x="-7.5" y="30" width="325" height="225" rx="50" class="symShadow" />
				<rect x="-37.5" y="0" width="325" height="225" rx="50" class="symBorder" />
			</g>
			<g transform="translate(-175,-150)">	
				<g class="symSilhouette">
					<path d="M175,195 c0,-1 0,-2 0,-2 -3,0 -5,0 -8,0 0,-1 0,-2 0,-3 -6,0 -12,0 -18,0 0,-3 0,-7 0,-10 1,0 2,0 3,0 0,-1 0,-2 0,-3 0,0 1,0 1,0 0,-1 0,-3 0,-5 3,0 6,0 9,0 0,-1 0,-2 0,-3 2,0 5,0 8,0 0,-6 0,-12 0,-18 -3,0 -5,0 -7,0 0,-8 0,-15 0,-23 -6,0 -13,0 -20,0 0,-1 0,-2 0,-4 -5,0 -11,0 -16,0 0,-1 0,-3 0,-5 -7,0 -13,0 -19,0 0,-1 0,-2 0,-4 -6,0 -12,0 -18,0 0,-1 0,-3 0,-5 -5,0 -9,0 -14,0 0,-1 0,-2 0,-3 -4,0 -8,0 -12,0 0,-2 0,-4 0,-5 -3,0 -5,0 -8,0 0,-2 0,-3 0,-4 -2,0 -4,0 -6,0 0,-2 0,-4 0,-7 -3,0 -5,0 -8,0 0,-3 0,-7 0,-11 2,0 3,0 5,0 0,-1 0,-2 0,-2 10,0 19,0 29,0 0,-1 0,-2 0,-3 29,0 58,0 87,0 0,-5 0,-10 0,-15 2,0 3,0 4,0 0,-4 0,-8 0,-12 1,0 2,0 3,0 0,-4 0,-8 0,-12 0,0 1,0 2,0 0,-2 0,-4 0,-6 3,0 6,0 9,0 0,2 0,4 0,6 1,0 2,0 4,0 0,4 0,8 0,12 1,0 1,0 2,0 0,4 0,8 0,12 1,0 2,0 3,0 0,5 0,10 0,15 29,0 59,0 88,0 0,1 0,2 0,3 10,0 20,0 29,0 0,0 0,1 0,2 2,0 4,0 5,0 0,4 0,8 0,11 -2,0 -5,0 -7,0 0,3 0,5 0,7 -2,0 -4,0 -7,0 0,1 0,2 0,4 -2,0 -5,0 -7,0 0,1 0,3 0,5 -4,0 -8,0 -13,0 0,1 0,2 0,3 -4,0 -9,0 -14,0 0,2 0,4 0,5 -5,0 -11,0 -17,0 0,2 0,3 0,4 -7,0 -13,0 -19,0 0,2 0,4 0,5 -6,0 -11,0 -17,0 0,2 0,3 0,4 -7,0 -14,0 -21,0 0,8 0,15 0,23 -2,0 -4,0 -5,0 0,6 0,12 0,18 2,0 5,0 7,0 0,1 0,2 0,3 3,0 6,0 9,0 0,2 0,4 0,5 1,0 1,0 2,0 0,1 0,2 0,3 0,0 1,0 2,0 0,3 0,7 0,10 -6,0 -12,0 -18,0 0,1 0,2 0,3 -2,0 -5,0 -7,0 0,0 0,1 0,2 -2,0 -4,0 -5,0z"/>
				</g>
			</g>
		</symbol>
		
		<!-- DISLODGED UNIT SYMBOLS -->
		<symbol id="DislodgedArmy" viewBox="0 0 23 15" overflow="visible">
			<g transform="translate(-11.5,-10)">
				<rect x="3" y="3" width="23" height="13" rx="4" stroke-width="1" class="symDislodgedShadow" />
				<rect x="0" y="0" width="23" height="13" rx="4" class="symDislodgedBorder" />
				<g class="symSilhouette">
					<rect x="6" y="6" width="13" height="1"/>
					<rect x="5" y="7" width="14" height="1"/>
					<rect x="6" y="8" width="12" height="1"/>
					<rect x="7" y="9" width="10" height="1"/>
					<rect x="10" y="3" width="5" height="3"/>
					<rect x="15" y="4.5" width="1" height="1.5"/>
					<line x1="3" y1="4" x2="10" y2="4"/>
				</g>
			</g>	
		</symbol>
		
		<symbol id="DislodgedFleet" viewBox="0 0 23 15" overflow="visible">
			<g transform="translate(-11.5,-10)">
				<rect x="3" y="3" width="23" height="13" rx="4" stroke-width="1" class="symDislodgedShadow" />
				<rect x="0" y="0" width="23" height="13" rx="4" class="symDislodgedBorder" />
				<g class="symSilhouette">
					<rect x="3" y="7" width="16.5" height="1"/>
					<rect x="4" y="8" width="15" height="1"/>
					<rect x="5" y="9" width="13.5" height="1"/>
					<rect x="13.5" y="6" width="2.75" height="1"/>
					<rect x="7" y="5"  width="4" height="2"/>
					<rect x="8.5" y="4"  width="1" height="1"/>
					<rect x="6" y="6" width="1" height="1"/>
				</g>
			</g>	
		</symbol>
		
		<symbol id="DislodgedWing" viewBox="0 0 250 150" overflow="visible">
			<g transform="translate(-125,-150)">
				<rect x="7.5" y="45" width="325" height="225" rx="50" class="symDislodgedShadow" />
				<rect x="-37.5" y="0" width="325" height="225" rx="50" class="symDislodgedBorder" />
			</g>
			<g transform="translate(-175,-150)">	
				<g class="symSilhouette">
					<path d="M175,195 c0,-1 0,-2 0,-2 -3,0 -5,0 -8,0 0,-1 0,-2 0,-3 -6,0 -12,0 -18,0 0,-3 0,-7 0,-10 1,0 2,0 3,0 0,-1 0,-2 0,-3 0,0 1,0 1,0 0,-1 0,-3 0,-5 3,0 6,0 9,0 0,-1 0,-2 0,-3 2,0 5,0 8,0 0,-6 0,-12 0,-18 -3,0 -5,0 -7,0 0,-8 0,-15 0,-23 -6,0 -13,0 -20,0 0,-1 0,-2 0,-4 -5,0 -11,0 -16,0 0,-1 0,-3 0,-5 -7,0 -13,0 -19,0 0,-1 0,-2 0,-4 -6,0 -12,0 -18,0 0,-1 0,-3 0,-5 -5,0 -9,0 -14,0 0,-1 0,-2 0,-3 -4,0 -8,0 -12,0 0,-2 0,-4 0,-5 -3,0 -5,0 -8,0 0,-2 0,-3 0,-4 -2,0 -4,0 -6,0 0,-2 0,-4 0,-7 -3,0 -5,0 -8,0 0,-3 0,-7 0,-11 2,0 3,0 5,0 0,-1 0,-2 0,-2 10,0 19,0 29,0 0,-1 0,-2 0,-3 29,0 58,0 87,0 0,-5 0,-10 0,-15 2,0 3,0 4,0 0,-4 0,-8 0,-12 1,0 2,0 3,0 0,-4 0,-8 0,-12 0,0 1,0 2,0 0,-2 0,-4 0,-6 3,0 6,0 9,0 0,2 0,4 0,6 1,0 2,0 4,0 0,4 0,8 0,12 1,0 1,0 2,0 0,4 0,8 0,12 1,0 2,0 3,0 0,5 0,10 0,15 29,0 59,0 88,0 0,1 0,2 0,3 10,0 20,0 29,0 0,0 0,1 0,2 2,0 4,0 5,0 0,4 0,8 0,11 -2,0 -5,0 -7,0 0,3 0,5 0,7 -2,0 -4,0 -7,0 0,1 0,2 0,4 -2,0 -5,0 -7,0 0,1 0,3 0,5 -4,0 -8,0 -13,0 0,1 0,2 0,3 -4,0 -9,0 -14,0 0,2 0,4 0,5 -5,0 -11,0 -17,0 0,2 0,3 0,4 -7,0 -13,0 -19,0 0,2 0,4 0,5 -6,0 -11,0 -17,0 0,2 0,3 0,4 -7,0 -14,0 -21,0 0,8 0,15 0,23 -2,0 -4,0 -5,0 0,6 0,12 0,18 2,0 5,0 7,0 0,1 0,2 0,3 3,0 6,0 9,0 0,2 0,4 0,5 1,0 1,0 2,0 0,1 0,2 0,3 0,0 1,0 2,0 0,3 0,7 0,10 -6,0 -12,0 -18,0 0,1 0,2 0,3 -2,0 -5,0 -7,0 0,0 0,1 0,2 -2,0 -4,0 -5,0z"/>
				</g>
			</g>
		</symbol>
		
	</defs>
	
	
	<!-- Example code: displays the symbols (3 main types) + SC -->
	<!-- Suitable for creating thumbnail images -->
	<g>                                                                                                    
		<use fill="deepskyblue" xlink:href="#Army" 	x="50" y="100" 	width="50" height="50"/>
		<use fill="yellow" 		xlink:href="#Fleet"	x="125" y="100" width="50" height="50"/>
		<use fill="lightgray" 	xlink:href="#Wing" 	x="75" y="150" width="50" height="50"/>
		<use fill="black" stroke="black" xlink:href="#SupplyCenter" 	x="150" y="155" width="30" height="30"/>
		
		<!-- show other symbols too -->
		
		<use fill="deepskyblue" xlink:href="#DislodgedArmy" x="50"  y="250" width="50" height="50"/>
		<use fill="yellow" 		xlink:href="#DislodgedFleet" x="150" y="250" width="50" height="50"/>
		<use fill="lightgray" 	xlink:href="#DislodgedWing" x="250" y="250" width="50" height="50"/>
		
		<use xlink:href="#BuildUnit" 	x="50"  y="350" width="30" height="30"/>
		<use xlink:href="#RemoveUnit" 	x="150" y="350" width="30" height="30"/>
		<use xlink:href="#FailedOrder"	x="250" y="350" width="30" height="30"/>
		<use xlink:href="#WaivedBuild"	x="350" y="350" width="50" height="50"/>
	</g>
	<!-- end example code -->
	
	
</svg>
